<?xml version="1.0" standalone="no"?>
<!DOCTYPE svg PUBLIC "-//W3C//DTD SVG 20010904//EN"
 "http://www.w3.org/TR/2001/REC-SVG-20010904/DTD/svg10.dtd">
<svg version="1.0" xmlns="http://www.w3.org/2000/svg"
 width="758.000000pt" height="1280.000000pt" viewBox="0 0 758.000000 1280.000000"
 preserveAspectRatio="xMidYMid meet">
<metadata>
Created by potrace 1.15, written by Peter Selinger 2001-2017
</metadata>
<g transform="translate(0.000000,1280.000000) scale(0.100000,-0.100000)"
fill="#000000" stroke="none">
<path d="M3510 12789 c-205 -15 -321 -37 -492 -94 -378 -125 -491 -177 -668
-308 -69 -50 -150 -110 -180 -132 -30 -22 -89 -62 -131 -90 -163 -106 -187
-126 -273 -221 -50 -55 -106 -111 -126 -125 -47 -34 -145 -144 -167 -189 -10
-19 -46 -65 -80 -103 -35 -37 -63 -72 -63 -78 0 -6 -24 -48 -53 -92 -242 -369
-280 -433 -302 -507 -4 -14 -31 -83 -60 -155 -72 -177 -117 -316 -169 -524
-59 -234 -133 -683 -158 -956 -17 -188 -18 -990 -1 -1060 7 -27 14 -70 15 -95
2 -41 0 -46 -27 -59 -17 -7 -41 -24 -55 -37 -27 -25 -123 -82 -210 -125 -72
-35 -160 -137 -257 -298 -26 -43 -53 -140 -53 -191 0 -54 40 -125 129 -226
l80 -92 6 -138 c4 -77 11 -161 16 -187 10 -54 45 -352 58 -497 5 -52 16 -156
25 -230 9 -74 28 -247 41 -385 33 -323 41 -395 55 -445 6 -22 8 -55 5 -73 -4
-18 5 -137 19 -263 14 -126 46 -440 71 -699 25 -258 54 -560 65 -670 12 -110
28 -267 36 -350 8 -82 30 -303 49 -490 19 -187 44 -443 55 -570 12 -126 26
-251 31 -279 10 -56 0 -105 -38 -177 -43 -84 -74 -354 -53 -474 14 -86 92
-194 229 -322 138 -128 190 -167 326 -244 189 -107 294 -157 409 -195 61 -20
129 -45 150 -56 22 -11 71 -24 109 -29 37 -5 147 -31 243 -59 330 -94 787
-156 1334 -180 140 -6 287 -13 325 -16 118 -8 674 25 860 51 94 13 222 31 285
40 63 9 249 43 413 76 306 61 500 115 600 169 30 16 121 52 203 80 82 29 163
63 181 76 17 13 55 33 85 44 136 51 346 221 462 374 62 81 117 205 123 276 9
94 -25 267 -68 353 -35 68 -41 131 -24 252 17 129 49 426 65 610 6 72 31 321
55 555 25 234 51 511 60 615 8 105 24 269 35 365 11 96 27 256 35 355 9 99 29
297 45 440 15 143 31 298 35 345 4 47 22 222 41 390 19 168 41 393 49 500 18
232 32 359 47 420 6 25 15 79 19 120 4 41 12 91 18 110 13 44 44 350 46 451 1
53 6 82 18 99 9 14 17 35 17 47 0 13 16 61 35 107 63 153 81 275 49 342 -16
34 -107 124 -126 124 -14 0 -246 141 -261 159 -16 20 -45 112 -53 172 -5 34 1
64 25 133 38 110 40 166 6 238 -15 31 -25 71 -25 98 0 25 -7 69 -14 98 -35
129 -113 177 -192 117 l-33 -26 -5 23 c-3 13 -10 84 -16 158 -11 132 -49 506
-70 685 -6 50 -24 149 -40 220 -15 72 -35 175 -44 230 -24 154 -79 354 -155
567 -92 258 -113 307 -230 557 -109 232 -133 276 -222 400 -32 45 -77 113
-100 152 -65 111 -338 379 -499 490 -366 251 -787 430 -1150 488 -287 47 -571
60 -850 40z m662 -224 c131 -17 282 -52 388 -90 180 -65 659 -321 875 -468
192 -130 495 -506 616 -763 27 -57 62 -126 79 -153 51 -87 158 -344 214 -513
53 -160 145 -535 185 -753 20 -107 45 -313 61 -505 4 -52 13 -124 19 -160 13
-81 23 -634 11 -664 -5 -14 -3 -37 6 -61 17 -50 17 -63 0 -97 -11 -20 -12 -36
-5 -60 13 -48 11 -111 -5 -133 -13 -18 -17 -18 -152 3 -77 12 -208 28 -293 37
-84 9 -181 22 -215 30 -142 33 -494 70 -956 100 -124 8 -295 20 -380 26 -338
24 -1908 -6 -2085 -41 -27 -5 -165 -21 -305 -35 -250 -24 -501 -55 -610 -75
-30 -6 -102 -17 -160 -26 -58 -8 -213 -38 -345 -65 -132 -27 -249 -49 -261
-49 -20 0 -23 7 -29 63 -11 87 -14 930 -4 997 5 30 22 161 40 290 18 129 37
273 44 320 14 94 114 484 168 655 20 61 45 144 57 185 31 104 119 329 169 427
22 46 69 118 104 161 34 43 84 119 111 169 42 78 75 118 240 291 105 110 230
232 276 272 93 78 248 185 338 231 31 16 66 36 77 45 11 8 38 29 60 46 58 45
236 128 422 197 241 90 348 115 623 146 74 8 158 19 185 24 81 14 315 12 437
-4z m2829 -4038 c19 -12 44 -42 57 -67 31 -60 26 -150 -13 -233 -23 -50 -26
-67 -23 -142 2 -47 -1 -85 -5 -85 -5 0 -70 21 -145 46 -169 56 -193 74 -156
115 14 15 28 17 98 12 79 -5 82 -5 109 22 32 32 35 76 11 144 -8 25 -13 56 -9
69 9 38 32 10 56 -70 12 -40 26 -67 33 -65 15 5 20 104 6 149 -7 24 -27 51
-55 75 -25 20 -45 41 -45 45 0 16 48 7 81 -15z m-2381 -256 c216 -13 602 -40
710 -51 52 -5 174 -16 270 -25 205 -18 373 -39 485 -61 148 -29 170 -33 235
-38 89 -8 297 -58 465 -110 77 -25 203 -63 280 -87 134 -40 248 -91 275 -124
10 -13 9 -15 -7 -15 -31 0 -34 -11 -12 -47 17 -27 19 -36 9 -48 -7 -8 -20 -15
-30 -15 -10 0 -83 33 -162 73 -168 86 -235 109 -544 188 -260 66 -511 113
-719 135 -77 8 -198 21 -270 29 -342 38 -553 52 -1145 77 -495 21 -1024 13
-1560 -22 -268 -18 -922 -80 -1005 -95 -44 -8 -141 -22 -215 -30 -74 -9 -169
-25 -210 -35 -41 -11 -145 -33 -230 -51 -85 -17 -202 -42 -258 -55 -152 -35
-152 -35 -152 29 0 84 15 94 166 112 155 18 409 58 669 105 119 21 164 26 530
65 132 14 292 32 355 40 63 8 237 21 385 30 149 9 353 23 455 30 197 15 940
12 1230 -4z m-1027 -558 c5 -358 9 -423 27 -423 17 0 22 62 29 411 4 201 11
371 16 379 6 10 102 12 524 6 284 -4 561 -8 616 -10 135 -4 596 -43 720 -61
55 -7 138 -17 185 -20 47 -4 123 -13 170 -21 47 -7 119 -18 160 -24 243 -32
960 -213 1072 -270 106 -54 178 -130 178 -188 0 -61 -114 -123 -405 -220 -305
-102 -404 -125 -690 -157 -77 -8 -234 -29 -350 -45 -312 -43 -701 -78 -950
-85 -121 -3 -276 -11 -345 -16 -220 -18 -624 -21 -1121 -10 -266 6 -493 14
-505 17 -20 5 -20 15 -32 407 -11 353 -22 543 -38 626 -4 18 -8 21 -17 12 -18
-18 -21 -140 -7 -381 23 -409 16 -584 -27 -632 -20 -22 -86 -24 -102 -4 -17
20 -28 108 -46 356 -8 118 -19 269 -25 335 -27 318 -28 326 -6 341 11 8 44 14
73 14 29 0 96 5 150 10 108 12 419 26 614 28 l126 2 6 -377z m-1021 185 c-3
-73 1 -182 7 -243 6 -60 18 -174 26 -252 18 -175 20 -394 3 -411 -15 -15 -64
-16 -73 -2 -4 6 -10 115 -15 243 -5 136 -15 261 -24 302 -12 58 -36 355 -36
455 0 31 11 36 80 39 l36 1 -4 -132z m-177 35 c3 -43 13 -136 21 -208 30 -259
32 -294 40 -513 l7 -222 -179 0 c-283 0 -594 26 -610 51 -3 6 -5 90 -4 187 0
102 -6 232 -14 307 -38 325 -34 377 32 394 20 6 159 24 307 41 149 17 279 32
290 34 11 2 39 4 62 5 l41 1 7 -77z m-807 -445 l-3 -433 -72 -3 -71 -3 -6 48
c-10 73 -12 713 -2 751 10 41 59 68 134 71 l22 1 -2 -432z m-915 385 c4 -3 -2
-21 -14 -39 -16 -27 -19 -42 -13 -84 6 -48 10 -53 64 -90 131 -89 143 -137 83
-325 -20 -64 -25 -101 -26 -190 -1 -194 29 -251 189 -355 42 -28 67 -51 72
-69 10 -36 9 -357 -1 -368 -28 -27 -582 212 -673 291 -47 41 -39 56 16 31 46
-21 62 -14 36 14 -29 31 -45 91 -46 164 0 72 -9 82 -36 41 -13 -19 -19 -22
-25 -12 -10 15 -12 162 -3 171 4 4 22 -7 41 -23 19 -17 96 -62 172 -100 145
-72 256 -109 274 -91 17 17 -9 37 -96 71 -85 34 -293 134 -314 152 -7 6 -13
19 -13 30 0 21 76 158 94 170 6 4 55 8 108 8 l98 0 41 37 41 38 -5 63 c-7 74
-26 107 -98 176 -46 44 -51 53 -46 82 4 26 -1 42 -29 81 -19 26 -33 57 -32 68
5 36 117 82 141 58z m689 -325 c1 -172 2 -348 0 -390 -4 -78 -4 -78 -32 -78
-15 0 -32 6 -38 13 -14 16 -29 230 -38 523 -8 260 -13 240 68 243 l36 1 4
-312z m-182 150 c0 -73 7 -229 15 -346 7 -117 11 -220 8 -228 -6 -17 -51 -30
-63 -18 -11 12 -17 695 -7 712 5 6 17 12 28 12 18 0 19 -8 19 -132z m-144 70
c8 -27 9 -637 1 -645 -4 -3 -18 -3 -32 1 l-25 6 0 324 c0 177 3 326 7 329 14
15 42 6 49 -15z m-132 -24 c11 -30 7 -94 -7 -94 -16 0 -67 51 -67 67 0 14 39
43 56 43 7 0 15 -7 18 -16z m-557 -127 c4 -37 2 -48 -15 -63 -20 -16 -20 -19
-5 -44 14 -25 14 -29 -2 -54 -13 -19 -16 -37 -11 -66 5 -31 3 -42 -9 -46 -24
-10 -18 -22 25 -49 47 -29 51 -54 20 -115 -17 -33 -26 -40 -49 -40 -71 0 -201
177 -201 274 1 59 31 117 83 161 25 21 48 49 52 62 3 13 20 32 38 43 31 19 32
19 50 1 11 -10 21 -39 24 -64z m7129 18 c8 -19 17 -74 20 -122 5 -86 5 -89
-29 -148 -19 -34 -51 -72 -73 -88 -166 -119 -292 -189 -404 -225 -86 -28 -411
-109 -475 -118 -27 -4 -66 -13 -87 -20 -75 -26 -210 -46 -578 -84 -107 -11
-305 -34 -440 -50 -365 -44 -485 -50 -1195 -56 -619 -6 -1281 4 -1635 26 -431
26 -822 61 -1060 96 -52 7 -140 18 -195 24 -127 14 -230 35 -325 66 -108 36
-120 45 -120 99 0 53 10 61 50 40 17 -9 114 -26 228 -40 108 -14 206 -27 218
-30 12 -2 88 -11 170 -20 82 -8 190 -21 239 -30 93 -15 265 -26 765 -50 162
-7 399 -19 525 -26 152 -7 305 -9 450 -3 121 4 303 8 405 9 346 0 1025 16
1135 26 61 5 198 16 306 24 108 8 247 21 310 29 63 9 175 23 249 32 74 8 212
30 305 49 94 18 188 36 210 40 108 17 365 81 490 122 162 53 333 136 398 194
62 54 107 145 107 216 0 61 14 69 36 18z m-6892 -191 c34 -33 4 -75 -40 -56
-33 16 -42 42 -19 58 24 18 40 18 59 -2z m336 -194 c0 -83 -9 -106 -35 -96
-15 5 -17 15 -12 64 3 31 11 75 17 96 17 56 30 28 30 -64z m6405 -370 c-9 -91
-23 -230 -31 -310 -8 -80 -19 -190 -24 -245 -6 -55 -17 -163 -25 -240 -22
-215 -45 -457 -55 -590 -5 -66 -16 -172 -25 -235 -22 -159 -93 -874 -110
-1110 -8 -107 -19 -226 -25 -265 -5 -38 -17 -144 -25 -235 -9 -91 -22 -226
-30 -300 -15 -129 -66 -631 -120 -1160 -54 -535 -84 -747 -116 -819 -31 -70
-217 -309 -278 -357 -54 -43 -198 -124 -220 -124 -6 0 -5 12 4 32 14 34 30
162 40 308 13 202 46 638 60 785 8 88 22 255 30 370 9 116 22 278 30 360 8 83
28 332 45 555 17 223 32 416 35 430 3 14 19 203 35 420 17 217 35 433 40 480
4 47 11 128 15 180 4 52 17 212 30 355 14 143 38 424 55 625 17 201 37 435 46
520 8 85 19 242 24 348 11 199 20 242 57 256 9 4 91 27 182 52 111 31 189 58
236 84 39 21 84 46 100 54 l30 16 3 -38 c2 -20 -4 -111 -13 -202z m-757 -145
c4 -144 -26 -645 -53 -875 -3 -25 -14 -162 -25 -305 -11 -143 -27 -332 -35
-420 -8 -88 -37 -448 -65 -800 -62 -801 -104 -1331 -130 -1640 -34 -405 -49
-603 -60 -765 -11 -157 -61 -736 -81 -931 -5 -58 -7 -117 -4 -130 7 -29 11
-27 -150 -91 -158 -64 -417 -146 -577 -184 -82 -19 -214 -49 -295 -68 -266
-62 -548 -94 -1098 -126 -405 -24 -930 3 -1260 65 -465 86 -510 97 -755 176
-118 39 -244 79 -280 91 -150 47 -322 141 -521 284 -194 139 -242 198 -293
363 -31 97 -77 438 -101 743 -20 256 -32 374 -50 488 -14 88 -84 776 -155
1510 -36 377 -76 757 -91 860 -6 41 -14 143 -19 225 -4 83 -15 188 -24 235 -9
47 -20 146 -26 220 -6 74 -27 275 -46 446 -38 345 -42 434 -20 434 7 0 87 -36
177 -79 324 -156 557 -223 602 -173 27 29 40 140 34 278 -6 132 -20 179 -61
211 -14 12 -26 24 -26 28 0 11 88 -2 198 -31 70 -18 144 -27 267 -34 94 -5
184 -12 200 -15 17 -3 136 -12 265 -21 129 -9 273 -19 320 -24 47 -5 187 -9
312 -9 125 -1 294 -5 375 -11 82 -5 337 -14 568 -21 706 -20 1506 12 2040 82
83 10 227 28 320 39 94 12 230 32 303 45 153 29 178 30 185 11 3 -7 -1 -49 -9
-92 -15 -88 -48 -440 -64 -694 -6 -91 -15 -210 -20 -265 -15 -148 -127 -1611
-140 -1815 -6 -96 -17 -247 -25 -335 -8 -88 -28 -347 -45 -575 -30 -412 -62
-846 -100 -1365 -11 -148 -24 -355 -30 -460 -5 -104 -15 -216 -21 -247 -19
-92 7 -145 36 -75 23 55 44 228 65 527 11 157 22 301 25 320 3 19 14 170 25
335 22 335 54 768 70 950 6 66 20 248 30 405 32 460 120 1646 145 1950 8 102
22 280 30 395 15 223 45 597 70 884 10 113 20 178 28 183 6 5 23 7 37 6 25 -3
25 -4 28 -113z m-5754 -5387 c52 -172 165 -300 408 -461 170 -113 339 -203
463 -247 146 -51 397 -116 595 -155 102 -20 223 -44 270 -55 100 -22 189 -36
285 -45 39 -3 104 -13 145 -20 321 -61 1255 -56 1675 9 55 9 150 22 211 30
270 35 843 186 1114 294 196 78 326 134 369 158 119 69 301 220 301 250 0 7
26 46 59 86 32 40 72 95 87 122 16 27 34 49 39 50 19 2 17 -82 -4 -129 -29
-65 -120 -191 -183 -251 -64 -63 -200 -166 -285 -218 -166 -100 -450 -217
-602 -247 -111 -23 -331 -90 -331 -101 0 -11 50 -10 172 3 85 9 117 18 183 49
44 22 116 48 160 60 152 41 210 61 302 106 51 24 101 44 110 44 25 0 72 30
188 120 105 82 191 173 282 302 30 43 59 78 64 78 28 0 -52 -176 -112 -247
-114 -134 -320 -292 -479 -367 -233 -110 -804 -287 -1130 -350 -313 -61 -856
-113 -1285 -123 -208 -5 -608 9 -760 27 -38 4 -155 18 -260 30 -111 12 -296
43 -445 75 -140 29 -275 56 -300 60 -60 10 -247 64 -390 113 -220 75 -532 222
-640 301 -30 23 -85 60 -121 85 -36 24 -76 57 -88 72 -42 55 -104 159 -123
207 -18 48 -24 97 -10 96 4 0 37 -40 75 -89 37 -49 102 -119 144 -155 71 -60
219 -155 243 -155 22 0 7 17 -52 60 -35 25 -117 99 -183 165 -170 171 -215
259 -215 420 0 66 10 91 21 53 4 -13 19 -62 33 -110z"/>
<path d="M639 7213 c-9 -10 -14 -43 -14 -95 0 -72 2 -82 24 -99 48 -39 59 -16
42 98 -17 118 -24 131 -52 96z"/>
<path d="M408 6795 c-15 -34 3 -72 38 -81 35 -9 60 8 56 37 -7 65 -71 94 -94
44z"/>
<path d="M848 6749 c-44 -25 -64 -212 -30 -279 13 -28 24 -36 50 -38 17 -2 32
-1 32 1 0 3 -14 31 -31 63 -28 53 -30 66 -27 131 2 50 9 77 21 90 30 34 21 53
-15 32z"/>
<path d="M901 6584 c-25 -32 -26 -47 -5 -68 19 -19 35 -20 56 -3 26 19 27 57
2 81 -21 22 -29 20 -53 -10z"/>
<path d="M6000 6704 c-6 -14 -10 -46 -10 -72 0 -89 35 -96 50 -11 16 84 -16
148 -40 83z"/>
<path d="M5791 6696 c-20 -23 -24 -79 -8 -100 14 -19 15 -19 26 2 6 12 14 42
17 67 6 36 4 45 -8 45 -9 0 -21 -6 -27 -14z"/>
<path d="M6275 6658 c-4 -10 -4 -26 0 -35 8 -17 8 -17 12 0 3 9 3 25 0 35 -4
16 -4 16 -12 0z"/>
<path d="M6265 6568 c-17 -78 -48 -750 -37 -793 l9 -30 6 35 c32 183 61 810
37 810 -5 0 -12 -10 -15 -22z"/>
<path d="M5977 6533 c-14 -24 -29 -243 -57 -800 -5 -100 -11 -197 -14 -215 -5
-28 -22 -278 -41 -618 -9 -157 -34 -560 -50 -800 -8 -124 -22 -342 -30 -485
-8 -143 -34 -566 -56 -940 -22 -374 -44 -790 -49 -925 -5 -135 -12 -292 -15
-350 -6 -91 -5 -108 9 -119 9 -8 19 -11 23 -7 8 8 19 162 33 461 17 379 39
771 50 915 6 74 17 252 25 395 8 143 24 393 34 555 11 162 23 347 26 410 9
161 70 1119 106 1650 46 695 52 821 40 853 -10 26 -25 35 -34 20z"/>
<path d="M5776 6482 c-11 -19 -25 -152 -31 -302 -3 -85 -21 -450 -40 -810 -19
-360 -39 -754 -45 -875 -6 -121 -17 -337 -25 -480 -13 -233 -34 -645 -120
-2361 -14 -281 -23 -519 -19 -528 10 -26 28 -13 35 25 8 37 28 428 59 1124 11
248 22 466 25 485 3 19 16 278 30 575 36 762 44 924 50 975 3 25 12 191 20
370 9 179 20 395 25 480 71 1109 79 1319 53 1327 -6 2 -14 0 -17 -5z"/>
<path d="M5567 5183 c-10 -103 -8 -581 2 -587 15 -10 21 34 33 259 11 224 4
385 -18 392 -7 2 -13 -22 -17 -64z"/>
<path d="M5436 4868 c-11 -69 -18 -646 -8 -652 17 -10 21 48 28 372 5 227 4
312 -4 312 -6 0 -13 -15 -16 -32z"/>
<path d="M6126 4763 c-10 -50 -26 -365 -25 -508 1 -245 25 -316 32 -95 2 63 9
201 17 305 13 183 8 325 -10 325 -5 0 -11 -12 -14 -27z"/>
<path d="M5276 4438 c-25 -147 -23 -765 1 -789 17 -17 22 29 24 256 5 488 -3
666 -25 533z"/>
<path d="M5421 4135 c1 -40 1 -40 11 -12 7 21 7 32 -1 40 -8 8 -11 0 -10 -28z"/>
<path d="M5415 4050 c-3 -5 -1 -10 4 -10 6 0 11 5 11 10 0 6 -2 10 -4 10 -3 0
-8 -4 -11 -10z"/>
<path d="M4976 3793 c-10 -75 -6 -404 5 -363 14 53 24 396 12 403 -6 4 -13
-12 -17 -40z"/>
<path d="M5270 3550 c0 -16 5 -30 10 -30 6 0 10 14 10 30 0 17 -4 30 -10 30
-5 0 -10 -13 -10 -30z"/>
<path d="M5270 3458 c0 -25 3 -29 10 -18 13 20 13 50 0 50 -5 0 -10 -15 -10
-32z"/>
<path d="M5991 3013 c-17 -76 -29 -168 -41 -308 -9 -120 -19 -194 -66 -515
-10 -63 -19 -155 -21 -205 -9 -265 -25 -408 -98 -883 -16 -108 -14 -142 10
-142 19 0 22 13 46 215 42 353 57 494 68 635 7 80 18 197 26 260 8 63 24 212
35 331 11 119 27 267 35 330 17 128 31 329 23 329 -4 0 -11 -21 -17 -47z"/>
<path d="M5687 1103 c-12 -18 -49 -250 -45 -286 6 -60 23 -28 41 75 17 100 20
235 4 211z"/>
<path d="M5502 1047 c-16 -19 -35 -143 -30 -198 5 -47 21 -80 33 -67 20 19 35
278 16 278 -5 0 -13 -6 -19 -13z"/>
</g>
</svg>
